<svg aria-hidden="true" style="width:0;height:0;position:absolute;overflow:hidden" xmlns="http://www.w3.org/2000/svg"><defs><symbol id="icon-logo" viewBox="0 0 32 32"><path fill="none" stroke="#fff" style="stroke:var(--color1,#fff)" stroke-linejoin="round" stroke-linecap="round" stroke-width="2.667" d="M26.427 2.667H5.574a2.907 2.907 0 0 0-2.907 2.907v20.853a2.907 2.907 0 0 0 2.907 2.907h20.853a2.907 2.907 0 0 0 2.907-2.907V5.574a2.907 2.907 0 0 0-2.907-2.907zM9.333 2.667v26.667M22.667 2.667v26.667M2.667 16h26.667M2.667 9.333h6.667M2.667 22.667h6.667M22.667 22.667h6.667M22.667 9.333h6.667"/></symbol><symbol id="icon-search" viewBox="0 0 32 32"><path fill="none" stroke="#fff" style="stroke:var(--color1,#fff)" stroke-linejoin="round" stroke-linecap="round" stroke-width="2.667" d="M14.667 25.333c5.891 0 10.667-4.776 10.667-10.667S20.558 3.999 14.667 3.999 4 8.775 4 14.666s4.776 10.667 10.667 10.667zM28 28.001l-5.8-5.8"/></symbol><symbol id="icon-favorite" viewBox="0 0 32 32"><path style="fill:var(--color1,#ff6b08)" d="m16 30.144-2.24-2.218C5.44 20.639 0 15.728 0 9.708 0 4.797 3.84.995 8.8.995c2.72 0 5.44 1.267 7.2 3.327C17.76 2.263 20.48.995 23.2.995c4.96 0 8.8 3.802 8.8 8.713 0 6.02-5.44 10.931-13.76 18.218L16 30.144z"/></symbol><symbol id="icon-modal-close" viewBox="0 0 24 24"><path d="M18.984 6.422 13.406 12l5.578 5.578-1.406 1.406L12 13.406l-5.578 5.578-1.406-1.406L10.594 12 5.016 6.422l1.406-1.406L12 10.594l5.578-5.578z"/></symbol><symbol id="icon-noposter" viewBox="0 0 48 48"><path d="M24 48c13.255 0 24-10.745 24-24S37.255 0 24 0 0 10.745 0 24s10.745 24 24 24zm0-43.5c10.77 0 19.5 8.73 19.5 19.5S34.77 43.5 24 43.5 4.5 34.77 4.5 24 13.23 4.5 24 4.5zm10.957 23.701 1.054 3.599-20.485 6-1.054-3.599zM12 15a3 3 0 1 1 6 0 3 3 0 0 1-6 0zm18 0a3 3 0 1 1 6 0 3 3 0 0 1-6 0z"/></symbol><symbol id="icon-up" viewBox="0 0 28 32"><path d="M28 9.401C28 3.075 23.421 0 14 0S0 3.075 0 9.401c0 7.275 13.173 15.668 13.733 16.021l.005.001c.011.007.023.007.035.013.072.038.148.064.227.064s.155-.026.227-.063c.011-.006.024-.006.035-.013l.005-.001C14.827 25.069 28 16.677 28 9.401zm-10 0c0 5.56-2.876 12.121-4 14.473-1.124-2.351-4-8.909-4-14.473C10 1.871 12.283 1 14 1s4 .871 4 8.401zm-9 0c0 4.797 1.979 10.141 3.331 13.236C9.589 19.74 5 14.181 5 9.401c0-4.69 1.918-7.327 5.977-8.132C9.653 2.717 9 5.411 9 9.401zm10 0c0-3.99-.652-6.684-1.977-8.132C21.082 2.074 23 4.712 23 9.401c0 4.78-4.589 10.338-7.331 13.236C17.021 19.543 19 14.198 19 9.401zm-18 0c0-3.971 1.987-6.47 6.156-7.632C5.042 3.301 4 5.833 4 9.401c0 4.203 3.135 8.792 5.838 11.973C5.98 18.306 1 13.544 1 9.401zm17.162 11.973C20.865 18.193 24 13.605 24 9.401c0-3.568-1.042-6.101-3.156-7.632C25.013 2.931 27 5.43 27 9.401c0 4.143-4.98 8.905-8.838 11.973zM11.5 27a.5.5 0 0 0-.5.5v3c0 .841.659 1.5 1.5 1.5h3c.841 0 1.5-.659 1.5-1.5v-3a.5.5 0 0 0-.5-.5h-5zm4.5 3.5c0 .294-.206.5-.5.5h-3a.479.479 0 0 1-.5-.5V28h4v2.5z"/></symbol></defs></svg>