<svg aria-hidden="true" style="width:0;height:0;position:absolute;overflow:hidden" xmlns="http://www.w3.org/2000/svg"><defs><symbol id="icon-logo" viewBox="0 0 32 32"><path fill="none" stroke="#fff" style="stroke:var(--color1,#fff)" stroke-linejoin="round" stroke-linecap="round" stroke-width="2.667" d="M26.427 2.667H5.574a2.907 2.907 0 0 0-2.907 2.907v20.853a2.907 2.907 0 0 0 2.907 2.907h20.853a2.907 2.907 0 0 0 2.907-2.907V5.574a2.907 2.907 0 0 0-2.907-2.907zM9.333 2.667v26.667M22.667 2.667v26.667M2.667 16h26.667M2.667 9.333h6.667M2.667 22.667h6.667M22.667 22.667h6.667M22.667 9.333h6.667"/></symbol><symbol id="icon-search" viewBox="0 0 32 32"><path fill="none" stroke="#fff" style="stroke:var(--color1,#fff)" stroke-linejoin="round" stroke-linecap="round" stroke-width="2.667" d="M14.667 25.333c5.891 0 10.667-4.776 10.667-10.667S20.558 3.999 14.667 3.999 4 8.775 4 14.666s4.776 10.667 10.667 10.667zM28 28.001l-5.8-5.8"/></symbol><symbol id="icon-favorite" viewBox="0 0 32 32"><path style="fill:var(--color1,#ff6b08)" d="m16 30.144-2.24-2.218C5.44 20.639 0 15.728 0 9.708 0 4.797 3.84.995 8.8.995c2.72 0 5.44 1.267 7.2 3.327C17.76 2.263 20.48.995 23.2.995c4.96 0 8.8 3.802 8.8 8.713 0 6.02-5.44 10.931-13.76 18.218L16 30.144z"/></symbol><symbol id="icon-modal-close" viewBox="0 0 24 24"><path d="M18.984 6.422 13.406 12l5.578 5.578-1.406 1.406L12 13.406l-5.578 5.578-1.406-1.406L10.594 12 5.016 6.422l1.406-1.406L12 10.594l5.578-5.578z"/></symbol><symbol id="icon-noposter" viewBox="0 0 48 48"><path d="M24 48c13.255 0 24-10.745 24-24S37.255 0 24 0 0 10.745 0 24s10.745 24 24 24zm0-43.5c10.77 0 19.5 8.73 19.5 19.5S34.77 43.5 24 43.5 4.5 34.77 4.5 24 13.23 4.5 24 4.5zm10.957 23.701 1.054 3.599-20.485 6-1.054-3.599zM12 15a3 3 0 1 1 6 0 3 3 0 0 1-6 0zm18 0a3 3 0 1 1 6 0 3 3 0 0 1-6 0z"/></symbol></defs></svg>